<svg xmlns="http://www.w3.org/2000/svg" version="1.1" xmlns:xlink="http://www.w3.org/1999/xlink" xmlns:svgjs="http://svgjs.dev/svgjs" width="2000" height="348" viewBox="0 0 2000 348"><g transform="matrix(1,0,0,1,-1.2121212121212466,-0.6075253086781061)"><svg viewBox="0 0 396 69" data-background-color="#ffffff" preserveAspectRatio="xMidYMid meet" height="348" width="2000" xmlns="http://www.w3.org/2000/svg" xmlns:xlink="http://www.w3.org/1999/xlink"><g id="tight-bounds" transform="matrix(1,0,0,1,0.2400000000000091,0.12045760430686414)"><svg viewBox="0 0 395.52 68.75908479138627" height="68.75908479138627" width="395.52"><g><svg viewBox="0 0 395.52 68.75908479138627" height="68.75908479138627" width="395.52"><g><svg viewBox="0 0 395.52 68.75908479138627" height="68.75908479138627" width="395.52"><g id="textblocktransform"><svg viewBox="0 0 395.52 68.75908479138627" height="68.75908479138627" width="395.52" id="textblock"><g><svg viewBox="0 0 395.52 68.75908479138627" height="68.75908479138627" width="395.52"><g transform="matrix(1,0,0,1,0,0)"><svg width="395.52" viewBox="1.05 -36.16 218.44 37.839999999999996" height="68.75908479138627" data-palette-color="#eca60d"><g class="wordmark-text-0" data-fill-palette-color="primary" id="text-0"><path d="M1.64-1.78L1.64-1.78Q1.95-2.42 2.29-3.21 2.64-4 2.93-4.93L2.93-4.93 3.59-6.54Q3.15-7.2 2.7-7.97 2.25-8.74 1.88-9.55 1.51-10.35 1.28-11.16 1.05-11.96 1.05-12.72L1.05-12.72Q1.05-12.77 1.43-12.81 1.81-12.84 2.38-12.87 2.95-12.89 3.63-12.9 4.3-12.92 4.87-12.93 5.44-12.94 5.82-12.95 6.2-12.96 6.2-12.96L6.2-12.96Q6.76-14.43 7.3-15.75 7.84-17.07 8.37-18.41 8.91-19.75 9.45-21.15 9.99-22.56 10.52-24.17L10.52-24.17Q11.55-27.2 12.52-29.49 13.5-31.79 14.36-33.76L14.36-33.76Q14.45-34.01 14.69-34.22 14.92-34.42 15.19-34.57 15.45-34.72 15.71-34.81 15.97-34.91 16.11-34.96L16.11-34.96Q16.21-34.99 16.86-35.18 17.5-35.38 18.33-35.6 19.17-35.82 19.98-35.99 20.8-36.16 21.29-36.16L21.29-36.16 21.73-36.16Q22.12-36.16 22.47-35.97 22.83-35.79 22.95-35.25L22.95-35.25Q24.12-32.25 25.45-28.7 26.78-25.15 28.05-20.87L28.05-20.87Q28.74-18.58 29.39-16.53 30.05-14.48 30.71-12.52 31.37-10.57 32.04-8.62 32.71-6.67 33.42-4.59L33.42-4.59Q33.64-3.71 33.87-3.2 34.11-2.69 34.3-2.39 34.5-2.1 34.62-1.97 34.74-1.83 34.74-1.68L34.74-1.68Q34.74-1.54 34.28-1.39L34.28-1.39 29.03 0.32Q28.44 0.54 27.83 0.76 27.22 0.98 26.68 1.15 26.15 1.32 25.74 1.43 25.34 1.54 25.17 1.54L25.17 1.54 25.02 1.54Q24.68 1.54 24.54 1.33 24.39 1.12 24.34 0.93L24.34 0.93Q24.1 0.12 23.85-0.52 23.61-1.17 23.38-1.82 23.14-2.47 22.91-3.2 22.68-3.93 22.46-4.93L22.46-4.93Q22.41-5.05 22.19-5.14 21.97-5.22 21.67-5.27 21.36-5.32 21.02-5.33 20.68-5.35 20.39-5.35L20.39-5.35Q19.46-5.35 18.88-5.33 18.31-5.32 17.87-5.31 17.43-5.3 17.03-5.29 16.63-5.27 16.04-5.27L16.04-5.27Q15.33-5.27 14.59-5.29 13.84-5.3 13.23-5.32L13.23-5.32 11.84-5.37Q11.21-3.61 10.57-2.08 9.94-0.54 9.2 1.1L9.2 1.1Q9.16 1.29 8.97 1.42 8.79 1.54 8.59 1.54L8.59 1.54Q8.45 1.54 8.42 1.51L8.42 1.51Q6.05 0.66 4.44-0.17 2.83-1 1.64-1.78ZM18.09-23.73L18.09-23.73Q17.5-21.56 16.93-19.79 16.36-18.02 15.88-16.65 15.41-15.28 15.06-14.34 14.72-13.4 14.58-12.89L14.58-12.89 14.58-12.67Q14.58-12.52 14.55-12.48L14.55-12.48 20.41-12.48Q20.14-13.67 19.84-14.89 19.53-16.11 19.24-17.46 18.95-18.8 18.65-20.34 18.36-21.88 18.09-23.73ZM62.96-0.78L57.03 0.88Q56.76 0.95 56.32 1.11 55.88 1.27 55.47 1.27L55.47 1.27Q55.12 1.27 54.87 1.1 54.61 0.93 54.61 0.51L54.61 0.51 54.61 0.37Q54.76-0.95 54.86-1.87 54.95-2.78 55.04-3.53 55.12-4.27 55.19-5.02 55.25-5.76 55.34-6.75 55.44-7.74 55.58-9.09 55.71-10.45 55.91-12.48L55.91-12.48Q56.03-13.72 56.13-15.01 56.22-16.31 56.22-17.41L56.22-17.41Q56.22-18.14 56.11-18.76 56-19.38 55.72-19.84 55.44-20.29 54.95-20.53 54.47-20.78 53.71-20.78L53.71-20.78Q53.15-20.78 52.16-20.53 51.17-20.29 50.19-19.73 49.22-19.17 48.46-18.25 47.7-17.33 47.6-15.99L47.6-15.99Q47.46-14.18 47.34-12.9 47.21-11.62 47.12-10.73 47.02-9.84 46.96-9.28 46.9-8.72 46.87-8.33L46.87-8.33Q46.85-8.23 46.8-7.79 46.75-7.35 46.69-6.74 46.63-6.13 46.57-5.44 46.51-4.76 46.45-4.15 46.38-3.54 46.35-3.1 46.31-2.66 46.31-2.56L46.31-2.56Q46.31-2.37 46.32-2.23 46.34-2.1 46.34-1.98L46.34-1.98Q46.34-1.78 46.15-1.65 45.97-1.51 45.33-1.34L45.33-1.34 38.86 0.88Q38.6 0.98 38.16 1.12 37.72 1.27 37.3 1.27L37.3 1.27Q36.96 1.27 36.7 1.1 36.45 0.93 36.45 0.51L36.45 0.51 38.67-24.44Q38.74-25.24 38.85-25.55 38.96-25.85 39.4-25.95L39.4-25.95Q41.62-26.39 43.97-26.84 46.31-27.29 48.53-28L48.53-28Q48.73-28 48.76-27.94 48.8-27.88 48.8-27.76L48.8-27.76Q48.8-27.71 48.79-27.61 48.78-27.51 48.72-27.17 48.65-26.83 48.54-26.14 48.44-25.44 48.24-24.19L48.24-24.19Q49.92-25.17 51.4-25.77 52.88-26.37 54.18-26.7 55.49-27.03 56.64-27.14 57.79-27.25 58.79-27.25L58.79-27.25Q62.23-27.25 63.79-25.16 65.35-23.07 65.35-18.9L65.35-18.9Q65.35-18.31 65.33-17.69 65.31-17.07 65.23-16.41L65.23-16.41 64.11-5.91Q63.99-4.88 63.96-4.02 63.94-3.15 63.94-2L63.94-2Q63.94-1.81 63.95-1.67 63.96-1.54 63.96-1.44L63.96-1.44Q63.96-1.22 63.78-1.1 63.6-0.98 62.96-0.78L62.96-0.78ZM96.48-27.66L93.96-4.91Q93.94-4.81 93.94-4.72 93.94-4.64 93.94-4.57L93.94-4.57Q93.94-3.96 94.14-3.55 94.33-3.15 94.56-2.89 94.79-2.64 94.99-2.48 95.19-2.32 95.19-2.2L95.19-2.2Q95.19-1.86 94.45-1.56L94.45-1.56 87.89 1.25Q87.86 1.27 87.71 1.27L87.71 1.27Q87.52 1.27 87.32 0.93 87.13 0.59 86.95 0.06 86.76-0.46 86.6-1.06 86.45-1.66 86.32-2.17L86.32-2.17Q84.79-0.39 83 0.44 81.22 1.27 79.46 1.27L79.46 1.27Q77.41 1.27 75.46 0.37 73.51-0.54 71.99-2.21 70.48-3.88 69.56-6.25 68.65-8.62 68.65-11.57L68.65-11.57Q68.65-15.06 69.66-17.94 70.67-20.83 72.41-22.9 74.14-24.98 76.45-26.11 78.75-27.25 81.34-27.25L81.34-27.25Q83.17-27.25 84.81-26.5 86.45-25.76 87.91-24.58L87.91-24.58Q88.06-25.32 88.08-25.76 88.11-26.2 88.19-26.44 88.28-26.68 88.52-26.77 88.76-26.86 89.33-26.9L89.33-26.9Q91.08-27.15 92.83-27.36 94.58-27.56 96.48-27.66L96.48-27.66ZM85.64-6.88L86.66-14.11Q86.91-15.5 86.99-16.74 87.08-17.97 87.13-18.99L87.13-18.99Q86.74-19.29 86.29-19.6 85.83-19.92 85.31-20.2 84.79-20.48 84.21-20.65 83.64-20.83 83-20.83L83-20.83Q81.68-20.83 80.79-19.97 79.9-19.12 79.35-17.87 78.8-16.63 78.57-15.23 78.34-13.84 78.34-12.77L78.34-12.77Q78.34-8.91 79.35-7.12 80.37-5.32 82.17-5.32L82.17-5.32Q82.91-5.32 83.81-5.74 84.71-6.15 85.64-6.88L85.64-6.88ZM99.94-0.07L99.63-6.74Q99.63-6.76 99.61-6.77 99.6-6.79 99.6-6.81L99.6-6.81Q99.6-7.13 99.94-7.13L99.94-7.13Q100.16-7.13 100.33-6.96L100.33-6.96Q101.31-6.03 102.57-5.44 103.83-4.86 105.29-4.86L105.29-4.86Q105.68-4.86 106.19-4.94 106.71-5.03 107.17-5.22 107.63-5.42 107.94-5.75 108.24-6.08 108.24-6.57L108.24-6.57Q108.24-7.1 107.98-7.56 107.71-8.01 107.27-8.3L107.27-8.3Q107.02-8.47 106.41-8.9 105.8-9.33 105.11-9.81 104.41-10.3 103.79-10.74 103.17-11.18 102.92-11.38L102.92-11.38Q101.82-12.21 101.18-13.06 100.53-13.92 100.19-14.83 99.85-15.75 99.75-16.75 99.65-17.75 99.65-18.87L99.65-18.87Q99.65-20.58 100.55-22.09 101.46-23.61 102.93-24.76 104.41-25.9 106.29-26.57 108.17-27.25 110.12-27.25L110.12-27.25Q111.74-27.25 113.3-26.76 114.86-26.27 116.2-25.1L116.2-25.1Q116.33-23.56 116.37-22.07 116.42-20.58 116.52-18.95L116.52-18.95Q116.52-18.63 116.37-18.52 116.23-18.41 116.03-18.41L116.03-18.41Q115.86-18.41 115.74-18.53L115.74-18.53Q115.18-19.07 114.59-19.59 114.01-20.12 113.36-20.52 112.71-20.92 111.98-21.18 111.25-21.44 110.42-21.44L110.42-21.44Q109.9-21.44 109.39-21.35 108.88-21.26 108.46-21.03 108.05-20.8 107.79-20.41 107.54-20.02 107.54-19.41L107.54-19.41Q107.54-18.7 107.71-18.19 107.88-17.68 108.51-17.19L108.51-17.19 113.05-14.11Q114.3-13.26 115.07-12.44 115.84-11.62 116.28-10.82 116.72-10.01 116.87-9.22 117.03-8.42 117.03-7.64L117.03-7.64Q117.03-5.44 116.02-3.77 115.01-2.1 113.4-0.99 111.78 0.12 109.75 0.7 107.71 1.27 105.66 1.27L105.66 1.27Q104.09 1.27 102.64 0.94 101.19 0.61 99.94-0.07L99.94-0.07ZM133.71-34.94L133.71-34.94Q133.66-34.57 133.61-33.78 133.56-32.98 133.47-31.96 133.39-30.93 133.32-29.77 133.24-28.61 133.16-27.53 133.07-26.44 132.99-25.54 132.9-24.63 132.85-24.1L132.85-24.1 134.1-25.37 137.56-29.66Q138.2-30.47 138.83-31.24 139.47-32.01 139.97-32.63 140.47-33.25 140.79-33.67 141.1-34.08 141.15-34.13L141.15-34.13 151.99-35.03Q152.04-35.06 152.21-35.06L152.21-35.06 152.41-35.06Q152.97-35.06 152.97-34.77L152.97-34.77Q152.97-34.59 152.81-34.36 152.65-34.13 152.33-33.76L152.33-33.76Q151.94-33.3 151.2-32.43 150.45-31.57 149.57-30.53 148.7-29.49 147.76-28.38 146.82-27.27 146.01-26.33 145.2-25.39 144.63-24.71 144.06-24.02 143.91-23.83L143.91-23.83 142.37-22.36Q140.81-20.87 138.37-18.65L138.37-18.65Q139.13-17.87 139.99-16.96 140.86-16.04 141.65-15.2 142.45-14.36 143.09-13.67 143.74-12.99 144.06-12.65L144.06-12.65 151.6-3.91Q151.72-3.76 151.92-3.66 152.11-3.56 152.31-3.49 152.5-3.42 152.64-3.33 152.77-3.25 152.77-3.13L152.77-3.13Q152.77-2.98 152.46-2.66L152.46-2.66Q152.26-2.47 151.72-2.09 151.19-1.71 150.47-1.27 149.75-0.83 148.92-0.37 148.09 0.1 147.32 0.48 146.55 0.85 145.9 1.1 145.25 1.34 144.91 1.34L144.91 1.34Q144.4 1.34 143.84 0.89 143.28 0.44 142.49-0.48 141.71-1.39 140.64-2.81 139.57-4.22 138.05-6.13L138.05-6.13Q137.17-7.23 136.34-8.29 135.51-9.35 134.78-10.29 134.05-11.23 133.45-11.98 132.85-12.72 132.46-13.18L132.46-13.18Q132.27-12.99 132.05-12.81 131.83-12.62 131.63-12.43L131.63-12.43 130.78-1.95Q130.75-1.73 130.69-1.51 130.63-1.29 130.36-1.2L130.36-1.2 123.45 1.29Q123.18 1.39 122.74 1.54 122.3 1.68 121.89 1.68L121.89 1.68Q121.52 1.68 121.28 1.49 121.03 1.29 121.03 0.78L121.03 0.78Q121.16-0.66 121.34-2.95 121.52-5.25 121.73-8.19 121.94-11.13 122.17-14.61 122.4-18.09 122.67-21.92L122.67-21.92 123.35-32.2Q123.38-32.64 123.4-32.93 123.43-33.23 123.48-33.42 123.53-33.62 123.65-33.72 123.77-33.81 124.01-33.86L124.01-33.86 132.46-35.89Q132.78-35.99 133.12-35.99L133.12-35.99Q133.46-35.99 133.58-35.78 133.71-35.57 133.71-34.94ZM155.43 0.78L155.43 0.78 156.65-15.92Q157.26-24.32 157.56-28.25 157.85-32.18 157.85-32.15L157.85-32.15Q157.87-32.59 157.9-32.89 157.92-33.18 158-33.37 158.07-33.57 158.19-33.67 158.31-33.76 158.56-33.81L158.56-33.81 167-35.84Q167.32-35.94 167.66-35.94L167.66-35.94Q168.01-35.94 168.13-35.73 168.25-35.52 168.25-34.89L168.25-34.89Q168.08-33.37 167.98-32.06 167.88-30.74 167.82-29.54 167.76-28.34 167.71-27.23 167.66-26.12 167.59-25.02L167.59-25.02Q167.44-23.83 167.33-22.63 167.22-21.44 167.13-20.15 167.03-18.87 166.92-17.44 166.81-16.02 166.66-14.33L166.66-14.33 165.59-1.46Q165.56-1.25 165.5-1.04 165.44-0.83 165.17-0.71L165.17-0.71Q165.15-0.71 164.88-0.61 164.61-0.51 164.17-0.35 163.73-0.2 163.15-0.02 162.56 0.15 161.9 0.29L161.9 0.29Q160.8 0.54 159.99 0.78 159.17 1.03 158.53 1.23 157.9 1.44 157.36 1.56 156.82 1.68 156.29 1.68L156.29 1.68Q155.92 1.68 155.68 1.49 155.43 1.29 155.43 0.78ZM174.52-0.32L174.52-0.32Q174.03-0.44 173.86-0.7 173.69-0.95 173.69-1.27L173.69-1.27Q173.69-1.34 173.7-1.37 173.72-1.39 173.72-1.46L173.72-1.46Q173.91-4.1 174.14-6.99 174.37-9.89 174.64-12.88 174.91-15.87 175.18-18.85 175.45-21.83 175.72-24.63L175.72-24.63 175.69-24.63Q175.6-24.63 175.14-24.48 174.69-24.32 174.12-24.13 173.54-23.95 172.96-23.8 172.37-23.66 172.01-23.66L172.01-23.66Q171.69-23.66 171.55-23.9 171.42-24.15 171.42-24.44L171.42-24.44Q171.42-24.66 171.49-24.85L171.49-24.85Q172.15-26.76 172.86-28.42 173.57-30.08 174.28-31.84L174.28-31.84Q176.13-32.84 178.13-33.58 180.14-34.33 182.17-34.83 184.21-35.33 186.24-35.58 188.27-35.84 190.17-35.84L190.17-35.84Q192.83-35.84 195.19-35.28 197.54-34.72 199.29-33.58 201.03-32.45 202.05-30.73 203.06-29 203.06-26.68L203.06-26.68Q203.06-25.68 202.62-24.76 202.18-23.83 201.49-22.99 200.79-22.14 199.94-21.42 199.08-20.7 198.25-20.12L198.25-20.12Q199.42-19.26 200.36-18.57 201.3-17.87 201.96-17.11 202.62-16.36 202.96-15.42 203.31-14.48 203.31-13.13L203.31-13.13Q203.31-11.08 202.59-9.22 201.86-7.35 200.61-5.75 199.35-4.15 197.63-2.86 195.91-1.56 193.89-0.65 191.88 0.27 189.65 0.77 187.41 1.27 185.14 1.27L185.14 1.27Q184.31 1.27 182.92 1.1 181.53 0.93 180 0.7 178.48 0.46 177 0.18 175.52-0.1 174.52-0.32ZM185.78-27.1L185.78-27.1Q185.31-24.22 184.99-21.25 184.68-18.29 184.45-15.49 184.21-12.7 184.04-10.18 183.87-7.67 183.7-5.69L183.7-5.69Q184.68-5.69 185.81-5.8 186.95-5.91 188.07-6.18 189.19-6.45 190.26-6.87 191.32-7.3 192.12-7.93 192.93-8.57 193.42-9.44 193.91-10.3 193.91-11.43L193.91-11.43Q193.91-12.11 193.49-12.63 193.08-13.16 192.43-13.54 191.78-13.92 191-14.17 190.22-14.43 189.47-14.59 188.73-14.75 188.11-14.83 187.49-14.92 187.17-14.97L187.17-14.97Q186.83-15.01 186.73-15.21 186.63-15.41 186.63-15.7L186.63-15.7Q186.63-16.02 187.02-16.65 187.41-17.29 188.1-18.38L188.1-18.38 189.12-20.02Q189.78-20.26 190.55-20.63 191.32-21 191.98-21.47 192.64-21.95 193.08-22.55 193.52-23.14 193.52-23.85L193.52-23.85Q193.52-25.85 192.65-26.92 191.78-27.98 190.15-27.98L190.15-27.98Q188.29-27.98 185.78-27.1ZM206.67 0.78L206.67 0.78 207.89-15.92Q208.5-24.32 208.8-28.25 209.09-32.18 209.09-32.15L209.09-32.15Q209.11-32.59 209.14-32.89 209.16-33.18 209.24-33.37 209.31-33.57 209.43-33.67 209.55-33.76 209.8-33.81L209.8-33.81 218.24-35.84Q218.56-35.94 218.9-35.94L218.9-35.94Q219.25-35.94 219.37-35.73 219.49-35.52 219.49-34.89L219.49-34.89Q219.32-33.37 219.22-32.06 219.12-30.74 219.06-29.54 219-28.34 218.95-27.23 218.9-26.12 218.83-25.02L218.83-25.02Q218.68-23.83 218.57-22.63 218.46-21.44 218.37-20.15 218.27-18.87 218.16-17.44 218.05-16.02 217.9-14.33L217.9-14.33 216.83-1.46Q216.8-1.25 216.74-1.04 216.68-0.83 216.41-0.71L216.41-0.71Q216.39-0.71 216.12-0.61 215.85-0.51 215.41-0.35 214.97-0.2 214.39-0.02 213.8 0.15 213.14 0.29L213.14 0.29Q212.04 0.54 211.23 0.78 210.41 1.03 209.77 1.23 209.14 1.44 208.6 1.56 208.06 1.68 207.53 1.68L207.53 1.68Q207.16 1.68 206.92 1.49 206.67 1.29 206.67 0.78Z" fill="#eca60d" data-fill-palette-color="primary"></path></g></svg></g></svg></g></svg></g></svg></g></svg></g><defs></defs></svg><rect width="395.52" height="68.75908479138627" fill="none" stroke="none" visibility="hidden"></rect></g></svg></g></svg>